<?xml version="1.0" encoding="UTF-8" standalone="no"?>
<svg
   xml:space="preserve"
   width="683"
   height="683"
   style="clip-rule:evenodd;fill-rule:evenodd;image-rendering:optimizeQuality;shape-rendering:geometricPrecision;text-rendering:geometricPrecision"
   viewBox="0 0 17887.518 17887.518"
   version="1.1"
   id="svg5"
   sodipodi:docname="logoconf-2.svg"
   inkscape:version="1.4.2 (ebf0e940, 2025-05-08)"
   xmlns:inkscape="http://www.inkscape.org/namespaces/inkscape"
   xmlns:sodipodi="http://sodipodi.sourceforge.net/DTD/sodipodi-0.dtd"
   xmlns="http://www.w3.org/2000/svg"
   xmlns:svg="http://www.w3.org/2000/svg"><sodipodi:namedview
     id="namedview5"
     pagecolor="#ffffff"
     bordercolor="#000000"
     borderopacity="0.25"
     inkscape:showpageshadow="false"
     inkscape:pageopacity="0.0"
     inkscape:pagecheckerboard="0"
     inkscape:deskcolor="#d1d1d1"
     inkscape:document-units="px"
     inkscape:clip-to-page="false"
     inkscape:zoom="0.66525352"
     inkscape:cx="571.9624"
     inkscape:cy="327.69462"
     inkscape:window-width="1512"
     inkscape:window-height="945"
     inkscape:window-x="0"
     inkscape:window-y="37"
     inkscape:window-maximized="0"
     inkscape:current-layer="svg5" /><defs
     id="defs1"><style
       id="style1">.str4{stroke:#fefefe;stroke-width:59.31;stroke-miterlimit:22.9256}.fil0{fill:#fff}</style></defs><g
     id="Слой_x0020_1"
     transform="matrix(1.9625495,0,0,1.9473076,-16270.292,-8779.9824)"><g
       id="_1650273920288"><path
         d="m 14675.13,13542.68 c -411.54,0 -829.78,-172.65 -1118.87,-461.07 -37.47,-37.47 -72.94,-76.95 -106.4,-120.45 l -501.21,501.22 c -27.44,27.43 -64.25,41.49 -100.38,41.49 -36.14,0 -72.94,-14.06 -100.38,-41.49 l -501.21,-501.22 c -34.13,42.83 -69.6,82.98 -106.4,120.45 -288.42,288.42 -706.66,461.07 -1118.87,461.07 -368.72,0 -695.95,-132.5 -946.9,-383.44 -287.74,-287.75 -370.72,-610.96 -379.42,-867.93 -242.25,-8.7 -574.16,-85.65 -867.93,-379.42 -277.71,-277.71 -412.21,-657.14 -378.76,-1068.69 30.12,-374.07 196.74,-736.76 456.39,-996.41 37.47,-37.47 76.95,-72.94 120.45,-106.4 l -537.35,-537.35 c -26.77,-26.77 -41.49,-62.9 -41.49,-100.38 0,-37.47 14.72,-73.61 41.49,-100.37 l 537.35,-537.35 c -42.83,-34.13 -82.98,-68.93 -120.45,-106.4 -259.65,-259.65 -425.6,-623.01 -456.39,-996.41 -33.45,-411.55 101.05,-791.65 378.76,-1068.69 236.89,-236.89 536.01,-367.38 867.93,-379.42 9.37,-257.64 92.35,-580.85 379.42,-867.93 250.95,-250.94 578.18,-383.44 946.9,-383.44 411.54,0 829.78,172.65 1118.87,461.06 37.47,37.48 72.94,76.96 106.4,120.46 l 501.21,-501.22 c 28.11,-27.44 64.24,-41.49 100.38,-41.49 36.13,0 72.94,14.05 100.38,41.49 l 501.21,501.22 c 34.13,-42.83 68.93,-82.98 106.4,-120.46 288.42,-288.41 706.66,-461.06 1118.87,-461.06 368.72,0 695.95,132.5 946.89,383.44 287.75,287.75 370.73,610.96 379.43,867.93 242.24,8.7 574.16,85.65 867.93,379.42 594.9,594.24 440.32,1547.82 -77.63,2065.76 -37.47,37.48 -76.95,72.95 -120.45,106.4 l 537.35,537.36 c 26.77,26.76 41.49,62.9 41.49,100.37 0,37.48 -14.72,73.61 -41.49,100.38 l -537.35,537.35 c 42.83,34.13 82.98,68.93 120.45,106.4 259.64,259.65 425.6,623.01 456.38,996.41 33.46,411.55 -101.04,791.64 -378.75,1068.69 -293.77,293.77 -625.69,370.72 -867.26,379.42 -9.37,257.64 -92.35,580.85 -379.43,867.93 -251.61,250.27 -578.84,382.77 -947.56,382.77 z"
         class="fil0"
         style="stroke:#fefefe;stroke-width:20;stroke-miterlimit:22.9256"
         id="path1" /><path
         d="m 14675.13,4803.85 c 304.48,0 607.62,103.72 845.85,341.95 302.47,302.47 352.66,651.11 335.93,901.38 h 3.34 c 0,3.35 -0.67,6.7 -0.67,10.04 29.45,-2.01 59.56,-3.34 91.68,-3.34 240.91,0 547.39,68.92 817.07,338.6 534.01,534.01 390.8,1395.91 -77.62,1864.34 -72.28,72.27 -153.25,133.84 -240.24,188.04 l 657.14,657.14 -657.14,657.13 c 86.32,53.54 167.96,115.1 240.24,188.04 468.42,468.43 611.63,1329.66 77.62,1864.34 -269.68,269.68 -576.16,338.6 -817.07,338.6 -29.44,0 -57.55,-1.33 -84.32,-2.67 v 3.34 c -3.34,0 -6.69,-0.67 -10.03,-0.67 18.06,250.95 -30.12,602.94 -335.93,908.75 -238.23,238.23 -541.37,341.95 -846.52,341.95 -378.08,0 -758.18,-159.93 -1017.82,-419.57 -72.27,-72.27 -133.84,-153.24 -188.04,-240.24 l -621,621 -621,-621 c -53.53,86.33 -115.1,167.97 -188.04,240.24 -259.64,259.64 -639.74,419.57 -1017.82,419.57 -304.48,0 -607.62,-103.72 -846.52,-341.95 -302.47,-302.47 -352.66,-651.11 -335.93,-901.38 h -3.34 c 0,-3.35 0.67,-6.7 0.67,-10.04 -29.45,2.01 -59.56,3.34 -91.68,3.34 -240.91,0 -547.39,-68.92 -817.07,-338.6 -534.01,-534.01 -390.8,-1395.91 77.62,-1864.34 72.28,-72.27 153.25,-133.84 240.24,-188.04 l -657.14,-657.14 657.14,-657.13 c -86.32,-53.54 -167.96,-115.1 -240.24,-188.04 -468.42,-468.43 -611.63,-1329.66 -77.62,-1864.34 269.68,-269.68 576.16,-338.6 817.07,-338.6 29.44,0 57.55,1.33 84.32,2.67 v -3.34 c 3.34,0 6.69,0.67 10.03,0.67 -18.06,-250.95 30.12,-602.94 335.93,-908.75 238.23,-238.23 541.37,-341.95 845.85,-341.95 378.08,0 758.18,159.93 1017.82,419.57 72.27,72.27 133.84,153.25 188.04,240.24 l 621,-621 621,621 c 53.54,-86.33 115.1,-167.97 188.04,-240.24 260.98,-260.31 641.08,-420.24 1019.16,-419.57 z m 0,-285.07 c -448.35,0 -904.73,188.04 -1219.24,502.55 -4.02,4.02 -8.7,8.7 -12.72,12.71 l -394.15,-394.14 c -53.53,-53.54 -125.8,-83.65 -201.42,-83.65 -75.62,0 -147.89,30.11 -201.42,83.65 l -394.15,394.14 c -4.02,-4.01 -8.7,-8.69 -12.72,-12.71 -314.51,-314.51 -770.89,-502.55 -1219.24,-502.55 -401.51,0 -772.91,151.23 -1047.27,424.93 -273.03,273.02 -380.1,575.49 -411.55,835.8 -317.19,38.81 -603.6,178.67 -835.8,410.88 -654.46,654.46 -488.51,1700.39 77.62,2266.52 4.02,4.01 8.7,8.69 12.71,12.71 L 8385.5,8899.9 c -53.53,53.54 -83.65,125.81 -83.65,201.43 0,75.61 30.12,147.89 83.65,201.42 l 430.28,430.28 c -4.01,4.02 -8.69,8.7 -12.71,12.72 -283.06,283.06 -464.41,678.55 -497.2,1085.41 -36.81,454.37 112.42,873.28 419.58,1181.1 232.2,232.21 518.61,372.74 835.8,411.55 31.45,260.31 137.85,562.78 411.55,835.81 274.36,274.36 646.43,424.93 1047.27,424.93 448.35,0 904.73,-188.04 1219.24,-502.56 4.02,-4.01 8.7,-8.7 12.72,-12.71 l 394.15,394.14 c 55.54,55.55 128.48,83.65 201.42,83.65 72.94,0 145.88,-28.1 201.42,-83.65 l 394.15,-394.14 c 4.02,4.01 8.7,8.7 12.72,12.71 314.51,314.52 770.89,502.56 1219.24,502.56 401.51,0 772.91,-151.24 1047.27,-424.93 273.03,-273.03 380.1,-575.5 411.55,-835.81 317.19,-38.81 603.6,-178.67 835.8,-410.88 307.16,-307.15 456.39,-726.73 419.58,-1181.1 -32.79,-406.86 -214.14,-802.35 -497.2,-1085.41 l -12.72,-12.72 430.29,-430.28 c 53.53,-53.54 83.65,-125.81 83.65,-201.42 0,-75.62 -30.12,-147.89 -83.65,-201.43 l -430.29,-430.28 12.72,-12.72 c 566.13,-566.12 732.08,-1612.05 77.62,-2266.51 -232.2,-232.21 -518.61,-372.74 -835.8,-411.55 -31.45,-260.31 -137.85,-562.78 -411.55,-835.8 -273.69,-273.7 -645.76,-424.93 -1047.27,-424.93 z"
         style="fill:#e5097f"
         id="path2" /><path
         id="1"
         d="m 14675.13,4803.85 c 304.48,0 607.62,103.72 845.85,341.95 302.47,302.47 352.66,651.11 335.93,901.38 h 3.34 c 0,3.35 -0.67,6.7 -0.67,10.04 29.45,-2.01 59.56,-3.34 91.68,-3.34 240.91,0 547.39,68.92 817.07,338.6 534.01,534.01 390.8,1395.91 -77.62,1864.34 -72.28,72.27 -153.25,133.84 -240.24,188.04 l 657.14,657.14 -657.14,657.13 c 86.32,53.54 167.96,115.1 240.24,188.04 468.42,468.43 611.63,1329.66 77.62,1864.34 -269.68,269.68 -576.16,338.6 -817.07,338.6 -29.44,0 -57.55,-1.33 -84.32,-2.67 v 3.34 c -3.34,0 -6.69,-0.67 -10.03,-0.67 18.06,250.95 -30.12,602.94 -335.93,908.75 -238.23,238.23 -541.37,341.95 -846.52,341.95 -378.08,0 -758.18,-159.93 -1017.82,-419.57 -72.27,-72.27 -133.84,-153.24 -188.04,-240.24 l -621,621 -621,-621 c -53.53,86.33 -115.1,167.97 -188.04,240.24 -259.64,259.64 -639.74,419.57 -1017.82,419.57 -304.48,0 -607.62,-103.72 -846.52,-341.95 -302.47,-302.47 -352.66,-651.11 -335.93,-901.38 h -3.34 c 0,-3.35 0.67,-6.7 0.67,-10.04 -29.45,2.01 -59.56,3.34 -91.68,3.34 -240.91,0 -547.39,-68.92 -817.07,-338.6 -534.01,-534.01 -390.8,-1395.91 77.62,-1864.34 72.28,-72.27 153.25,-133.84 240.24,-188.04 l -657.14,-657.14 657.14,-657.13 c -86.32,-53.54 -167.96,-115.1 -240.24,-188.04 -468.42,-468.43 -611.63,-1329.66 -77.62,-1864.34 269.68,-269.68 576.16,-338.6 817.07,-338.6 29.44,0 57.55,1.33 84.32,2.67 v -3.34 c 3.34,0 6.69,0.67 10.03,0.67 -18.06,-250.95 30.12,-602.94 335.93,-908.75 238.23,-238.23 541.37,-341.95 845.85,-341.95 378.08,0 758.18,159.93 1017.82,419.57 72.27,72.27 133.84,153.25 188.04,240.24 l 621,-621 621,621 c 53.54,-86.33 115.1,-167.97 188.04,-240.24 260.98,-260.31 641.08,-420.24 1019.16,-419.57 m 0,-285.07 c -448.35,0 -904.73,188.04 -1219.24,502.55 -4.02,4.02 -8.7,8.7 -12.72,12.71 l -394.15,-394.14 c -53.53,-53.54 -125.8,-83.65 -201.42,-83.65 -75.62,0 -147.89,30.11 -201.42,83.65 l -394.15,394.14 c -4.02,-4.01 -8.7,-8.69 -12.72,-12.71 -314.51,-314.51 -770.89,-502.55 -1219.24,-502.55 -401.51,0 -772.91,151.23 -1047.27,424.93 -273.03,273.02 -380.1,575.49 -411.55,835.8 -317.19,38.81 -603.6,178.67 -835.8,410.88 -654.46,654.46 -488.51,1700.39 77.62,2266.52 4.02,4.01 8.7,8.69 12.71,12.71 L 8385.5,8899.9 c -53.53,53.54 -83.65,125.81 -83.65,201.43 0,75.61 30.12,147.89 83.65,201.42 l 430.28,430.28 c -4.01,4.02 -8.69,8.7 -12.71,12.72 -283.06,283.06 -464.41,678.55 -497.2,1085.41 -36.81,454.37 112.42,873.28 419.58,1181.1 232.2,232.21 518.61,372.74 835.8,411.55 31.45,260.31 137.85,562.78 411.55,835.81 274.36,274.36 646.43,424.93 1047.27,424.93 448.35,0 904.73,-188.04 1219.24,-502.56 4.02,-4.01 8.7,-8.7 12.72,-12.71 l 394.15,394.14 c 55.54,55.55 128.48,83.65 201.42,83.65 72.94,0 145.88,-28.1 201.42,-83.65 l 394.15,-394.14 c 4.02,4.01 8.7,8.7 12.72,12.71 314.51,314.52 770.89,502.56 1219.24,502.56 401.51,0 772.91,-151.24 1047.27,-424.93 273.03,-273.03 380.1,-575.5 411.55,-835.81 317.19,-38.81 603.6,-178.67 835.8,-410.88 307.16,-307.15 456.39,-726.73 419.58,-1181.1 -32.79,-406.86 -214.14,-802.35 -497.2,-1085.41 l -12.72,-12.72 430.29,-430.28 c 53.53,-53.54 83.65,-125.81 83.65,-201.42 0,-75.62 -30.12,-147.89 -83.65,-201.43 l -430.29,-430.28 12.72,-12.72 c 566.13,-566.12 732.08,-1612.05 77.62,-2266.51 -232.2,-232.21 -518.61,-372.74 -835.8,-411.55 -31.45,-260.31 -137.85,-562.78 -411.55,-835.8 -273.69,-273.7 -645.76,-424.93 -1047.27,-424.93 z"
         style="fill:none;stroke:#e5097f;stroke-width:20;stroke-miterlimit:22.9256" /><path
         d="m 14805.97,7144.3 -1957.7,-1957.7 -1957.7,1957.7 -1957.7,1957.7 1957.7,1957.69 1957.7,1957.7 1957.7,-1957.7 L 16763.66,9102 Z"
         style="fill:#0065a8;stroke:#fefefe;stroke-width:54.51;stroke-miterlimit:22.9256"
         id="path3" /><path
         d="m 15521.65,13058.86 c -534.01,534.01 -1395.91,390.8 -1864.34,-77.62 -948.9,-948.9 -208.79,-3242.85 -208.79,-3242.85 0,0 2293.96,-740.12 3242.86,208.78 468.42,468.43 611.63,1329.66 77.62,1864.34 -306.48,306.48 -660.48,354 -912.09,335.26 18.73,251.61 -28.78,604.94 -335.26,912.09 z"
         class="fil0"
         style="stroke:#fefefe;stroke-width:59.31;stroke-miterlimit:22.9256"
         id="path4" /><path
         d="m 10174.89,5145.13 c 534.01,-534.01 1395.91,-390.8 1864.34,77.62 948.9,948.9 208.78,3242.85 208.78,3242.85 0,0 -2293.95,740.12 -3242.85,-208.78 -468.42,-468.43 -611.63,-1329.66 -77.62,-1864.34 306.48,-306.48 660.48,-353.99 912.09,-335.26 -18.74,-250.94 28.78,-604.94 335.26,-912.09 z M 16769,6392.48 c 534.01,534.01 390.8,1395.91 -77.62,1864.34 -948.9,948.9 -3242.86,208.78 -3242.86,208.78 0,0 -740.11,-2293.95 208.79,-3242.85 468.43,-468.42 1329.66,-611.63 1864.34,-77.62 306.48,306.48 353.99,660.48 335.26,912.09 250.94,-18.73 604.94,28.78 912.09,335.26 z m -7841.46,5419.03 c -534.01,-534.01 -390.8,-1395.91 77.62,-1864.34 948.9,-948.9 3242.85,-208.78 3242.85,-208.78 0,0 740.12,2293.95 -208.78,3242.85 -468.43,468.42 -1329.66,611.63 -1864.34,77.62 -306.48,-306.48 -354,-660.48 -335.26,-912.09 -250.94,18.74 -604.94,-28.78 -912.09,-335.26 z"
         class="fil0 str4"
         id="path5" /></g></g></svg>
